<?xml version="1.0" encoding="utf-8"?>
<!-- Generator: Adobe Illustrator 23.0.1, SVG Export Plug-In . SVG Version: 6.00 Build 0)  -->
<svg version="1.1" id="bold" xmlns="http://www.w3.org/2000/svg" xmlns:xlink="http://www.w3.org/1999/xlink" x="0px" y="0px"
	 viewBox="0 0 512 512" style="enable-background:new 0 0 512 512;" xml:space="preserve">
<path d="M498.6,403.8l-126.5,99.4c-17.6,13.9-43.8,1.3-43.8-21.3v-63.2H39.2c-20,0-36.1-16.2-36.1-36.1s16.2-36.1,36.1-36.1h289.1
	v-63.2c0-22.7,26.3-35.3,43.8-21.3l126.5,99.4c6.6,5.1,10.4,13,10.4,21.3S505.1,398.7,498.6,403.8z"/>
<path d="M472.8,165.7H183.7v63.2c0,22.7-26.2,35.3-43.8,21.3L13.4,150.9c-6.6-5.1-10.4-13-10.4-21.3s3.8-16.2,10.4-21.3L139.9,8.8
	c17.5-13.9,43.8-1.4,43.8,21.3v63.2h289.1c20,0,36.1,16.2,36.1,36.1S492.8,165.7,472.8,165.7z"/>
</svg>
